<svg width="16" height="16" viewBox="0 0 16 16" fill="none" xmlns="http://www.w3.org/2000/svg">
<path fill-rule="evenodd" clip-rule="evenodd" d="M8 1.75C8.27614 1.75 8.5 1.97386 8.5 2.25V2.52085C9.90818 2.63856 11.2359 3.2506 12.2426 4.25736C13.3679 5.38258 14 6.9087 14 8.5C14 9.68669 13.6481 10.8467 12.9888 11.8334C12.3295 12.8201 11.3925 13.5892 10.2961 14.0433C9.19975 14.4974 7.99335 14.6162 6.82946 14.3847C5.66557 14.1532 4.59648 13.5818 3.75736 12.7426C2.91825 11.9035 2.3468 10.8344 2.11529 9.67054C1.88378 8.50666 2.0026 7.30026 2.45673 6.2039C2.74085 5.51797 3.14823 4.89439 3.65507 4.36218L3.39645 4.10355C3.20119 3.90829 3.20119 3.59171 3.39645 3.39645C3.59171 3.20118 3.90829 3.20118 4.10356 3.39645L4.40406 3.69695C4.48974 3.63281 4.57727 3.57086 4.66658 3.51118C5.51414 2.94486 6.48961 2.60535 7.5 2.52087V2.25C7.5 1.97386 7.72386 1.75 8 1.75ZM8 3.5C7.0111 3.5 6.0444 3.79325 5.22215 4.34265C4.39991 4.89206 3.75904 5.67295 3.3806 6.58658C3.00217 7.50021 2.90315 8.50555 3.09608 9.47545C3.289 10.4454 3.76521 11.3363 4.46447 12.0355C5.16373 12.7348 6.05465 13.211 7.02455 13.4039C7.99446 13.5969 8.99979 13.4978 9.91342 13.1194C10.8271 12.741 11.6079 12.1001 12.1574 11.2779C12.7068 10.4556 13 9.48891 13 8.5C13 7.17392 12.4732 5.90215 11.5355 4.96447C10.5979 4.02678 9.32608 3.5 8 3.5ZM8 4.25C8.27614 4.25 8.5 4.47386 8.5 4.75V7.08535C9.0826 7.29127 9.5 7.84689 9.5 8.5C9.5 9.32843 8.82843 10 8 10C7.17158 10 6.5 9.32843 6.5 8.5C6.5 7.84689 6.91741 7.29127 7.5 7.08535V4.75C7.5 4.47386 7.72386 4.25 8 4.25ZM8 8C7.72386 8 7.5 8.22386 7.5 8.5C7.5 8.77614 7.72386 9 8 9C8.27614 9 8.5 8.77614 8.5 8.5C8.5 8.22386 8.27614 8 8 8Z" fill="#42D3FF"/>
</svg>
